<svg width="22" height="27" viewBox="0 0 22 27" fill="none" xmlns="http://www.w3.org/2000/svg">
<path d="M3.97775 9.59026C1.69632 10.6701 1 13.5948 1 15.8319C1 18.7552 3.09406 23.7275 5.86942 25.4218C6.96347 26.0897 8.25886 26.2892 9.43696 25.4218C10.0588 24.9902 11.6741 24.3859 13.16 25.4218C14.3381 26.2892 15.6335 26.0897 16.7275 25.4218C18.5532 24.3073 20.0841 21.7743 20.918 19.3391C20.9757 19.1704 20.8386 19 20.6603 19C18.4511 19 16.6603 17.2091 16.6603 15C16.6603 13.6983 17.2821 12.5418 18.2449 11.8113C19.0297 11.2159 19.5097 10.0117 18.6192 9.59026C16.5673 8.61907 14.5986 8.57211 12.142 9.34473C11.5947 9.51685 11.0022 9.51685 10.4549 9.34473C7.99836 8.57211 6.02964 8.61907 3.97775 9.59026Z" stroke="#2260FF" stroke-width="2" stroke-linecap="round"/>
<path d="M11.6858 6C11.5202 4.74074 12.0833 2.17778 15.6603 2C15.4119 3.33333 14.2692 6 11.6858 6Z" stroke="#2260FF" stroke-width="2" stroke-linecap="round"/>
</svg>
