<svg width="12" height="13" viewBox="0 0 12 13" fill="none" xmlns="http://www.w3.org/2000/svg">
<path d="M10.3245 2.05147V1.55147V2.05147ZM11 2.66665L10.5 2.66665V2.66665H11ZM1 2.66665L0.5 2.66665L1 2.66665ZM1.67551 2.05147L1.67551 2.55147L1.67551 2.05147ZM10.3245 11.989V11.489V11.989ZM11 11.3738H11.5H11ZM3.34116 10.4715H3.84116H3.34116ZM2.66488 9.85627L2.66488 10.3563H2.6654L2.66488 9.85627ZM1.26011 10.0959L0.922717 10.4649H0.922717L1.26011 10.0959ZM4.18861 11.989V12.489V11.989ZM2.72579 11.4338L2.38922 11.8035L2.72579 11.4338ZM1.33898 4.70588C1.06284 4.70588 0.838983 4.92974 0.838983 5.20588C0.838983 5.48202 1.06284 5.70588 1.33898 5.70588V4.70588ZM10.9153 5.70588C11.1914 5.70588 11.4153 5.48202 11.4153 5.20588C11.4153 4.92974 11.1914 4.70588 10.9153 4.70588V5.70588ZM3.5986 3.32614C3.5986 3.60228 3.82246 3.82614 4.0986 3.82614C4.37474 3.82614 4.5986 3.60228 4.5986 3.32614H3.5986ZM4.5986 1C4.5986 0.723858 4.37474 0.5 4.0986 0.5C3.82246 0.5 3.5986 0.723858 3.5986 1H4.5986ZM7.6664 3.32614C7.6664 3.60228 7.89025 3.82614 8.1664 3.82614C8.44254 3.82614 8.6664 3.60228 8.6664 3.32614H7.6664ZM8.6664 1C8.6664 0.723858 8.44254 0.5 8.1664 0.5C7.89025 0.5 7.6664 0.723858 7.6664 1H8.6664ZM4.05085 6.80882C3.7747 6.80882 3.55085 7.03268 3.55085 7.30882C3.55085 7.58497 3.7747 7.80882 4.05085 7.80882V6.80882ZM4.13559 7.80882C4.41174 7.80882 4.63559 7.58497 4.63559 7.30882C4.63559 7.03268 4.41174 6.80882 4.13559 6.80882V7.80882ZM4.05085 8.58824C3.7747 8.58824 3.55085 8.81209 3.55085 9.08824C3.55085 9.36438 3.7747 9.58824 4.05085 9.58824V8.58824ZM4.13559 9.58824C4.41174 9.58824 4.63559 9.36438 4.63559 9.08824C4.63559 8.81209 4.41174 8.58824 4.13559 8.58824V9.58824ZM6.08475 6.80882C5.8086 6.80882 5.58475 7.03268 5.58475 7.30882C5.58475 7.58497 5.8086 7.80882 6.08475 7.80882V6.80882ZM6.16949 7.80882C6.44563 7.80882 6.66949 7.58497 6.66949 7.30882C6.66949 7.03268 6.44563 6.80882 6.16949 6.80882V7.80882ZM6.08475 8.58824C5.8086 8.58824 5.58475 8.81209 5.58475 9.08824C5.58475 9.36438 5.8086 9.58824 6.08475 9.58824V8.58824ZM6.16949 9.58824C6.44563 9.58824 6.66949 9.36438 6.66949 9.08824C6.66949 8.81209 6.44563 8.58824 6.16949 8.58824V9.58824ZM8.11864 6.80882C7.8425 6.80882 7.61864 7.03268 7.61864 7.30882C7.61864 7.58497 7.8425 7.80882 8.11864 7.80882V6.80882ZM8.20339 7.80882C8.47953 7.80882 8.70339 7.58497 8.70339 7.30882C8.70339 7.03268 8.47953 6.80882 8.20339 6.80882V7.80882ZM8.11864 8.58824C7.8425 8.58824 7.61864 8.81209 7.61864 9.08824C7.61864 9.36438 7.8425 9.58824 8.11864 9.58824V8.58824ZM8.20339 9.58824C8.47953 9.58824 8.70339 9.36438 8.70339 9.08824C8.70339 8.81209 8.47953 8.58824 8.20339 8.58824V9.58824ZM10.3245 11.489H4.18861V12.489H10.3245V11.489ZM1.5 9.51291V2.66665L0.5 2.66665V9.51291H1.5ZM1.67551 2.55147L10.3245 2.55147V1.55147L1.67551 1.55147L1.67551 2.55147ZM10.5 2.66665V11.3738H11.5V2.66665L10.5 2.66665ZM10.3245 2.55147C10.3877 2.55147 10.4362 2.57466 10.4655 2.60133C10.494 2.6273 10.5 2.65087 10.5 2.66665L11.5 2.66665C11.5 2.00777 10.9287 1.55147 10.3245 1.55147V2.55147ZM1.5 2.66665C1.5 2.65087 1.506 2.6273 1.53451 2.60133C1.5638 2.57465 1.61231 2.55147 1.67551 2.55147L1.67551 1.55147C1.07134 1.55147 0.5 2.00776 0.5 2.66665L1.5 2.66665ZM3.06237 11.064C2.58574 10.6301 1.94888 10.0481 1.5975 9.72686L0.922717 10.4649C1.27411 10.7862 1.91169 11.3688 2.38922 11.8035L3.06237 11.064ZM10.3245 12.489C10.9287 12.489 11.5 12.0327 11.5 11.3738H10.5C10.5 11.3896 10.494 11.4132 10.4655 11.4391C10.4362 11.4658 10.3877 11.489 10.3245 11.489V12.489ZM2.84116 10.4715L2.84116 12H3.84116V10.4715H2.84116ZM1 10.3563L2.66488 10.3563L2.66488 9.35627H1L1 10.3563ZM3.84116 10.4715C3.84116 9.81202 3.26897 9.35565 2.66437 9.35627L2.6654 10.3563C2.72865 10.3562 2.77724 10.3794 2.80658 10.4061C2.83515 10.4321 2.84116 10.4557 2.84116 10.4715H3.84116ZM0.5 9.51291C0.5 9.87678 0.654611 10.2197 0.922717 10.4649L1.5975 9.72686C1.53204 9.66701 1.5 9.58992 1.5 9.51291H0.5ZM4.18861 11.489C4.03196 11.489 3.81231 11.4452 3.58572 11.3594C3.35824 11.2733 3.17076 11.1627 3.06237 11.064L2.38922 11.8035C2.61952 12.0132 2.92942 12.1802 3.23167 12.2946C3.53481 12.4094 3.87723 12.489 4.18861 12.489V11.489ZM1.33898 5.70588H10.9153V4.70588H1.33898V5.70588ZM4.5986 3.32614V1H3.5986V3.32614H4.5986ZM8.6664 3.32614V1H7.6664V3.32614H8.6664ZM4.05085 7.80882H4.13559V6.80882H4.05085V7.80882ZM4.05085 9.58824H4.13559V8.58824H4.05085V9.58824ZM6.08475 7.80882H6.16949V6.80882H6.08475V7.80882ZM6.08475 9.58824H6.16949V8.58824H6.08475V9.58824ZM8.11864 7.80882H8.20339V6.80882H8.11864V7.80882ZM8.11864 9.58824H8.20339V8.58824H8.11864V9.58824Z" fill="#2260FF"/>
</svg>
