<svg width="20" height="20" viewBox="0 0 20 20" fill="none" xmlns="http://www.w3.org/2000/svg">
<path d="M18.7144 1.28782C18.5195 1.09214 18.2029 1.09147 18.0073 1.28631C17.8116 1.48116 17.8109 1.79774 18.0057 1.99342L18.7144 1.28782ZM18.4934 4.74412L18.8477 5.09692L18.864 5.08056L18.8787 5.06277L18.4934 4.74412ZM18.0078 1.99548C18.2026 2.19116 18.5192 2.19184 18.7149 1.99699C18.9106 1.80215 18.9113 1.48557 18.7164 1.28989L18.0078 1.99548ZM15.2718 1.5088L14.9516 1.12483L14.9338 1.13963L14.9175 1.156L15.2718 1.5088ZM13.7114 2.3673C13.5166 2.56298 13.5172 2.87956 13.7129 3.0744C13.9086 3.26925 14.2252 3.26857 14.42 3.07289L13.7114 2.3673ZM16.9329 5.60262C16.7381 5.7983 16.7388 6.11488 16.9344 6.30973C17.1301 6.50457 17.4467 6.50389 17.6416 6.30821L16.9329 5.60262ZM1.99425 1.99342C2.1891 1.79774 2.18842 1.48116 1.99274 1.28631C1.79706 1.09147 1.48048 1.09214 1.28564 1.28782L1.99425 1.99342ZM1.50663 4.74412L1.12132 5.06277L1.13603 5.08056L1.15232 5.09692L1.50663 4.74412ZM1.28358 1.28989C1.08874 1.48557 1.08941 1.80215 1.28509 1.99699C1.48077 2.19184 1.79735 2.19116 1.9922 1.99548L1.28358 1.28989ZM4.72816 1.5088L5.08246 1.156L5.06616 1.13963L5.04842 1.12483L4.72816 1.5088ZM5.57998 3.07289C5.77482 3.26857 6.0914 3.26925 6.28708 3.0744C6.48276 2.87956 6.48344 2.56298 6.28859 2.3673L5.57998 3.07289ZM2.35845 6.30821C2.55329 6.50389 2.86988 6.50457 3.06556 6.30973C3.26123 6.11488 3.26191 5.7983 3.06707 5.60262L2.35845 6.30821ZM15.4642 19.2492C15.6018 19.4886 15.9075 19.5711 16.1469 19.4335C16.3863 19.2958 16.4688 18.9902 16.3311 18.7508L15.4642 19.2492ZM3.80595 18.7508C3.66832 18.9902 3.75082 19.2958 3.99022 19.4335C4.22962 19.5711 4.53527 19.4886 4.6729 19.2492L3.80595 18.7508ZM10.1352 9.89237H9.6352V10.3924H10.1352V9.89237ZM10.6352 4.8172C10.6352 4.54106 10.4113 4.3172 10.1352 4.3172C9.85906 4.3172 9.6352 4.54106 9.6352 4.8172H10.6352ZM12.9427 10.3924C13.2189 10.3924 13.4427 10.1685 13.4427 9.89237C13.4427 9.61623 13.2189 9.39237 12.9427 9.39237V10.3924ZM18.0057 1.99342C18.0061 1.99378 18.0063 1.994 18.0065 1.99421L18.7156 1.2891C18.7152 1.28861 18.7147 1.28814 18.7144 1.28782L18.0057 1.99342ZM18.0065 1.99421C18.6632 2.65463 18.6311 3.79302 18.1081 4.42548L18.8787 5.06277C19.6967 4.07358 19.7706 2.35007 18.7156 1.2891L18.0065 1.99421ZM18.7164 1.28989C18.7162 1.28964 18.7157 1.28912 18.7151 1.28861L18.007 1.99469C18.0072 1.99488 18.0074 1.99504 18.0078 1.99548L18.7164 1.28989ZM18.7151 1.28861C17.6576 0.227956 15.9379 0.302139 14.9516 1.12483L15.5921 1.89277C16.2205 1.36867 17.3506 1.33633 18.007 1.99469L18.7151 1.28861ZM14.9175 1.156L13.7114 2.3673L14.42 3.07289L15.6262 1.8616L14.9175 1.156ZM18.1391 4.39133L16.9329 5.60262L17.6416 6.30821L18.8477 5.09692L18.1391 4.39133ZM1.28564 1.28782C1.2852 1.28826 1.28478 1.28868 1.28436 1.2891L1.99347 1.99421C1.99374 1.99393 1.994 1.99367 1.99425 1.99342L1.28564 1.28782ZM1.28436 1.2891C0.22938 2.35007 0.303294 4.07358 1.12132 5.06277L1.89195 4.42548C1.36892 3.79302 1.33677 2.65463 1.99347 1.99421L1.28436 1.2891ZM1.9922 1.99548C1.99245 1.99523 1.99271 1.99497 1.99298 1.99469L1.28485 1.28861C1.28444 1.28903 1.28401 1.28945 1.28358 1.28989L1.9922 1.99548ZM1.99298 1.99469C2.64944 1.33633 3.77953 1.36867 4.4079 1.89277L5.04842 1.12483C4.06206 0.302139 2.34244 0.227956 1.28485 1.28861L1.99298 1.99469ZM4.37385 1.8616L5.57998 3.07289L6.28859 2.3673L5.08246 1.156L4.37385 1.8616ZM1.15232 5.09692L2.35845 6.30821L3.06707 5.60262L1.86094 4.39133L1.15232 5.09692ZM13.6322 16.0626L15.4642 19.2492L16.3311 18.7508L14.4992 15.5642L13.6322 16.0626ZM5.63789 15.5642L3.80595 18.7508L4.6729 19.2492L6.50484 16.0626L5.63789 15.5642ZM10.6352 9.89237V4.8172H9.6352V9.89237H10.6352ZM10.1352 10.3924H12.9427V9.39237H10.1352V10.3924ZM17.4962 9.46944C17.4962 13.4776 14.2614 16.7232 10.2756 16.7232V17.7232C14.8177 17.7232 18.4962 14.0258 18.4962 9.46944H17.4962ZM10.2756 16.7232C6.28973 16.7232 3.05492 13.4776 3.05492 9.46944H2.05492C2.05492 14.0258 5.73342 17.7232 10.2756 17.7232V16.7232ZM3.05492 9.46944C3.05492 5.4613 6.28973 2.21571 10.2756 2.21571V1.21571C5.73342 1.21571 2.05492 4.91305 2.05492 9.46944H3.05492ZM10.2756 2.21571C14.2614 2.21571 17.4962 5.4613 17.4962 9.46944H18.4962C18.4962 4.91305 14.8177 1.21571 10.2756 1.21571V2.21571Z" fill="white"/>
</svg>
