<svg width="17" height="20" viewBox="0 0 17 20" fill="none" xmlns="http://www.w3.org/2000/svg">
<path d="M10.47 19.8232C10.7461 19.8232 10.97 19.5994 10.97 19.3232C10.97 19.0471 10.7461 18.8232 10.47 18.8232V19.8232ZM6.16393 15.4213H5.66393C5.66393 15.4368 5.66466 15.4524 5.66612 15.4679L6.16393 15.4213ZM10.4645 18.8232C10.1883 18.8232 9.96447 19.0471 9.96447 19.3232C9.96447 19.5994 10.1883 19.8232 10.4645 19.8232V18.8232ZM14.7705 15.4213L15.2705 15.4213H15.2705L14.7705 15.4213ZM15.2705 12.0732C15.2705 11.7971 15.0466 11.5732 14.7705 11.5732C14.4943 11.5732 14.2705 11.7971 14.2705 12.0732L15.2705 12.0732ZM6.66393 12.8168C6.66393 12.5407 6.44008 12.3168 6.16393 12.3168C5.88779 12.3168 5.66393 12.5407 5.66393 12.8168H6.66393ZM11.082 3.78411H11.582C11.582 3.77385 11.5817 3.7636 11.581 3.75336L11.082 3.78411ZM6.04098 12.8232V12.3232H6.04098L6.04098 12.8232ZM9.46165 1.82324C9.18551 1.82324 8.96165 2.0471 8.96165 2.32324C8.96165 2.59938 9.18551 2.82324 9.46165 2.82324V1.82324ZM1 3.78411L0.500947 3.75336C0.500316 3.7636 0.5 3.77385 0.5 3.78411H1ZM2.62032 2.82324C2.89646 2.82324 3.12032 2.59938 3.12032 2.32324C3.12032 2.0471 2.89646 1.82324 2.62032 1.82324V2.82324ZM10.47 18.8232H10.4672V19.8232H10.47V18.8232ZM10.4676 18.8232C8.4577 18.8219 6.82241 17.0887 6.66175 15.3746L5.66612 15.4679C5.87104 17.6543 7.90068 19.8215 10.4669 19.8232L10.4676 18.8232ZM10.4645 19.8232H10.4672V18.8232H10.4645V19.8232ZM10.4676 19.8232C12.9786 19.8215 15.2705 17.8838 15.2705 15.4213L14.2705 15.4213C14.2705 17.2315 12.5319 18.8218 10.4669 18.8232L10.4676 19.8232ZM15.2705 15.4213L15.2705 12.0732L14.2705 12.0732L14.2705 15.4213L15.2705 15.4213ZM6.66393 15.4213V12.8168H5.66393V15.4213H6.66393ZM10.582 3.78411V7.7102H11.582V3.78411H10.582ZM10.582 7.7102C10.582 10.2646 8.54223 12.3232 6.04098 12.3232V13.3232C9.10785 13.3232 11.582 10.8035 11.582 7.7102H10.582ZM11.581 3.75336C11.5608 3.42477 11.4328 2.95425 11.1071 2.55499C10.765 2.13576 10.2259 1.82324 9.46165 1.82324V2.82324C9.92162 2.82324 10.1777 2.99768 10.3322 3.18714C10.5031 3.39659 10.5732 3.65649 10.5829 3.81486L11.581 3.75336ZM0.5 3.78411V7.7102H1.5V3.78411H0.5ZM0.5 7.7102C0.5 10.8035 2.97412 13.3232 6.04098 13.3232L6.04098 12.3232C3.53974 12.3232 1.5 10.2646 1.5 7.7102H0.5ZM1.49905 3.81486C1.50881 3.65649 1.57887 3.39659 1.74974 3.18714C1.90432 2.99768 2.16034 2.82324 2.62032 2.82324V1.82324C1.85605 1.82324 1.31692 2.13576 0.974898 2.55499C0.649173 2.95425 0.521194 3.42477 0.500947 3.75336L1.49905 3.81486ZM3.94262 2.19824C3.94262 2.41317 3.77339 2.57324 3.58197 2.57324V3.57324C4.3412 3.57324 4.94262 2.94981 4.94262 2.19824H3.94262ZM3.58197 2.57324C3.39054 2.57324 3.22131 2.41317 3.22131 2.19824H2.22131C2.22131 2.94981 2.82274 3.57324 3.58197 3.57324V2.57324ZM3.22131 2.19824C3.22131 1.98331 3.39054 1.82324 3.58197 1.82324V0.823242C2.82274 0.823242 2.22131 1.44667 2.22131 2.19824H3.22131ZM3.58197 1.82324C3.77339 1.82324 3.94262 1.98331 3.94262 2.19824H4.94262C4.94262 1.44667 4.3412 0.823242 3.58197 0.823242V1.82324ZM8.86066 2.19824C8.86066 2.41317 8.69143 2.57324 8.5 2.57324V3.57324C9.25923 3.57324 9.86066 2.94981 9.86066 2.19824H8.86066ZM8.5 2.57324C8.30858 2.57324 8.13934 2.41317 8.13934 2.19824H7.13934C7.13934 2.94981 7.74077 3.57324 8.5 3.57324V2.57324ZM8.13934 2.19824C8.13934 1.98331 8.30858 1.82324 8.5 1.82324V0.823242C7.74077 0.823242 7.13934 1.44667 7.13934 2.19824H8.13934ZM8.5 1.82324C8.69143 1.82324 8.86066 1.98331 8.86066 2.19824H9.86066C9.86066 1.44667 9.25923 0.823242 8.5 0.823242V1.82324ZM15.5 10.6982C15.5 11.1893 15.1106 11.5732 14.6475 11.5732V12.5732C15.6784 12.5732 16.5 11.726 16.5 10.6982H15.5ZM14.6475 11.5732C14.1845 11.5732 13.7951 11.1893 13.7951 10.6982H12.7951C12.7951 11.726 13.6167 12.5732 14.6475 12.5732V11.5732ZM13.7951 10.6982C13.7951 10.2072 14.1845 9.82324 14.6475 9.82324V8.82324C13.6167 8.82324 12.7951 9.67053 12.7951 10.6982H13.7951ZM14.6475 9.82324C15.1106 9.82324 15.5 10.2072 15.5 10.6982H16.5C16.5 9.67053 15.6784 8.82324 14.6475 8.82324V9.82324Z" fill="#2260FF"/>
</svg>
