<svg width="17" height="20" viewBox="0 0 17 20" fill="none" xmlns="http://www.w3.org/2000/svg">
<path d="M7.4551 11.5134C7.62088 11.2925 7.57625 10.9791 7.35541 10.8133C7.13457 10.6476 6.82115 10.6922 6.65536 10.913L7.4551 11.5134ZM5.11417 12.9661C4.94839 13.1869 4.99302 13.5003 5.21386 13.6661C5.4347 13.8319 5.74812 13.7873 5.9139 13.5664L5.11417 12.9661ZM4.19585 11.5938C3.97877 11.4231 3.66443 11.4607 3.49375 11.6778C3.32307 11.8949 3.36069 12.2092 3.57777 12.3799L4.19585 11.5938ZM6.95645 15.0364C7.17353 15.207 7.48787 15.1694 7.65854 14.9523C7.82922 14.7353 7.7916 14.4209 7.57452 14.2503L6.95645 15.0364ZM3.38736 18.4675L3.78722 18.7676L3.38736 18.4675ZM1.27568 16.8072L0.875815 16.507L1.27568 16.8072ZM1.52036 18.7179L1.21132 19.1109L1.52036 18.7179ZM14.4585 9.78071C12.7699 12.03 9.62785 12.4483 7.43584 10.7248L6.81776 11.5109C9.45537 13.5847 13.2364 13.0744 15.2582 10.3811L14.4585 9.78071ZM7.43584 10.7248C5.23682 8.99585 4.81973 5.76168 6.5134 3.50553L5.71367 2.90518C3.69693 5.59169 4.18716 9.44264 6.81776 11.5109L7.43584 10.7248ZM6.5134 3.50553C8.20194 1.25621 11.344 0.83798 13.536 2.56143L14.1541 1.77531C11.5165 -0.298487 7.73553 0.21183 5.71367 2.90518L6.5134 3.50553ZM13.536 2.56143C15.7351 4.29039 16.1522 7.52456 14.4585 9.78071L15.2582 10.3811C17.275 7.69455 16.7847 3.8436 14.1541 1.77531L13.536 2.56143ZM6.65536 10.913L5.11417 12.9661L5.9139 13.5664L7.4551 11.5134L6.65536 10.913ZM3.57777 12.3799L6.95645 15.0364L7.57452 14.2503L4.19585 11.5938L3.57777 12.3799ZM6.23211 13.8451L2.98749 18.1673L3.78722 18.7676L7.03185 14.4454L6.23211 13.8451ZM1.67555 17.1073L4.92018 12.7852L4.12044 12.1848L0.875815 16.507L1.67555 17.1073ZM1.8294 18.3248C1.46207 18.036 1.3891 17.4889 1.67555 17.1073L0.875815 16.507C0.266291 17.3189 0.412411 18.4828 1.21132 19.1109L1.8294 18.3248ZM2.98749 18.1673C2.70616 18.542 2.18972 18.6081 1.8294 18.3248L1.21132 19.1109C2.01725 19.7446 3.17257 19.5864 3.78722 18.7676L2.98749 18.1673Z" fill="#2260FF"/>
</svg>
