<svg width="16" height="19" viewBox="0 0 16 19" fill="none" xmlns="http://www.w3.org/2000/svg">
<path d="M5.71851 3.06046C5.71851 3.33661 5.94237 3.56046 6.21851 3.56046C6.49465 3.56046 6.71851 3.33661 6.71851 3.06046H5.71851ZM9.11661 3.06046C9.11661 3.33661 9.34047 3.56046 9.61661 3.56046C9.89275 3.56046 10.1166 3.33661 10.1166 3.06046H9.11661ZM13.3946 11.119L13.0109 11.4396L13.3946 11.119ZM14.9885 13.9743L15.4826 13.8978L14.9885 13.9743ZM7.99667 2.29913C7.72053 2.29913 7.49667 2.52299 7.49667 2.79913C7.49667 3.07527 7.72053 3.29913 7.99667 3.29913V2.29913ZM13.2175 7.27691L12.7199 7.32618L13.2175 7.27691ZM2.60544 11.119L2.98908 11.4396H2.98908L2.60544 11.119ZM1.01155 13.9743L1.50567 14.0507L1.01155 13.9743ZM8.00333 3.29913C8.27947 3.29913 8.50333 3.07527 8.50333 2.79913C8.50333 2.52299 8.27947 2.29913 8.00333 2.29913V3.29913ZM2.78254 7.27691L2.28497 7.22763L2.78254 7.27691ZM10.1363 15.149V15.4076H11.1363V15.149H10.1363ZM5.79638 15.4076V15.149H4.79638V15.4076H5.79638ZM7.96632 17.5C6.75391 17.5 5.79638 16.5494 5.79638 15.4076H4.79638C4.79638 17.1293 6.22961 18.5 7.96632 18.5V17.5ZM10.1363 15.4076C10.1363 16.5494 9.17874 17.5 7.96632 17.5V18.5C9.70304 18.5 11.1363 17.1293 11.1363 15.4076H10.1363ZM6.71851 3.06046C6.71851 2.49458 6.88034 2.10515 7.09174 1.86459C7.3002 1.62737 7.5859 1.5 7.91756 1.5V0.5C7.31087 0.5 6.74704 0.74193 6.34057 1.20448C5.93703 1.66369 5.71851 2.30449 5.71851 3.06046H6.71851ZM7.91756 1.5C8.24923 1.5 8.53493 1.62737 8.74339 1.86459C8.95478 2.10515 9.11661 2.49458 9.11661 3.06046H10.1166C10.1166 2.30449 9.8981 1.66369 9.49456 1.20448C9.08808 0.74193 8.52426 0.5 7.91756 0.5V1.5ZM13.0109 11.4396C13.1157 11.565 13.2768 11.7115 13.3936 11.8256C13.5269 11.9559 13.6682 12.1032 13.8066 12.2883C14.0784 12.6517 14.3611 13.1895 14.4943 14.0507L15.4826 13.8978C15.324 12.873 14.9762 12.1823 14.6073 11.6893C14.4254 11.446 14.2437 11.2581 14.0925 11.1104C13.9248 10.9464 13.8399 10.8722 13.7782 10.7983L13.0109 11.4396ZM7.99667 3.29913C7.99766 3.29913 7.99866 3.29913 7.99968 3.29913L8.00032 2.29913C7.99912 2.29913 7.9979 2.29913 7.99667 2.29913V3.29913ZM7.99968 3.29913C10.5187 3.30075 12.5238 5.34569 12.7199 7.32618L13.715 7.22763C13.4679 4.73214 11.0295 2.30108 8.00032 2.29913L7.99968 3.29913ZM12.7199 7.32618C12.8266 8.40377 12.7748 9.21216 12.7421 9.83452C12.7262 10.1377 12.7124 10.4292 12.7337 10.6773C12.7551 10.9272 12.8165 11.207 13.0109 11.4396L13.7782 10.7983C13.7756 10.7952 13.7442 10.7569 13.73 10.592C13.7158 10.4254 13.724 10.2056 13.7407 9.88702C13.7734 9.2659 13.83 8.38893 13.715 7.22763L12.7199 7.32618ZM2.2218 10.7983C2.16007 10.8722 2.07521 10.9464 1.90747 11.1104C1.75632 11.2581 1.57464 11.446 1.39268 11.6893C1.02383 12.1823 0.676014 12.873 0.517428 13.8978L1.50567 14.0507C1.63894 13.1895 1.92156 12.6517 2.19343 12.2883C2.33184 12.1032 2.4731 11.9559 2.60642 11.8256C2.72315 11.7115 2.8843 11.565 2.98908 11.4396L2.2218 10.7983ZM8.00333 2.29913C8.0021 2.29913 8.00088 2.29913 7.99968 2.29913L8.00032 3.29913C8.00134 3.29913 8.00234 3.29913 8.00333 3.29913V2.29913ZM7.99968 2.29913C4.97047 2.30108 2.53209 4.73214 2.28497 7.22763L3.2801 7.32618C3.47622 5.34569 5.48133 3.30075 8.00032 3.29913L7.99968 2.29913ZM2.28497 7.22763C2.16997 8.38893 2.22662 9.2659 2.25927 9.88702C2.27602 10.2056 2.28422 10.4254 2.26996 10.592C2.25585 10.7569 2.22438 10.7952 2.2218 10.7983L2.98908 11.4396C3.18348 11.207 3.24493 10.9272 3.26631 10.6773C3.28755 10.4292 3.27383 10.1377 3.25789 9.83452C3.22518 9.21216 3.17339 8.40377 3.2801 7.32618L2.28497 7.22763ZM2.14101 15.649H13.859V14.649H2.14101V15.649ZM0.517428 13.8978C0.360089 14.9145 1.23963 15.649 2.14101 15.649V14.649C1.70186 14.649 1.46383 14.3211 1.50567 14.0507L0.517428 13.8978ZM14.4943 14.0507C14.5362 14.3211 14.2981 14.649 13.859 14.649V15.649C14.7604 15.649 15.6399 14.9145 15.4826 13.8978L14.4943 14.0507Z" fill="black"/>
</svg>
