<svg width="12" height="14" viewBox="0 0 12 14" fill="none" xmlns="http://www.w3.org/2000/svg">
<path d="M5.43669 8.10898C5.60247 7.88814 5.55784 7.57472 5.337 7.40894C5.11616 7.24315 4.80274 7.28779 4.63695 7.50863L5.43669 8.10898ZM3.60949 8.87732C3.44371 9.09816 3.48834 9.41158 3.70918 9.57737C3.93002 9.74315 4.24344 9.69852 4.40922 9.47768L3.60949 8.87732ZM3.23358 7.93151C3.0165 7.76083 2.70216 7.79845 2.53148 8.01553C2.3608 8.23261 2.39842 8.54695 2.6155 8.71763L3.23358 7.93151ZM4.86795 10.4886C5.08503 10.6593 5.39937 10.6217 5.57005 10.4046C5.74073 10.1875 5.70311 9.87316 5.48603 9.70248L4.86795 10.4886ZM2.59157 12.645L2.99144 12.9451L2.59157 12.645ZM1.18379 11.5381L0.783921 11.2379L1.18379 11.5381ZM1.34691 12.8119L1.03787 13.205L1.34691 12.8119ZM9.83903 6.75375C8.76889 8.17929 6.78065 8.44276 5.39357 7.35219L4.77549 8.1383C6.60817 9.57923 9.2353 9.22367 10.6388 7.3541L9.83903 6.75375ZM5.39357 7.35219C3.99949 6.2561 3.73362 4.20279 4.80889 2.77041L4.00916 2.17006C2.61082 4.0328 2.94983 6.70289 4.77549 8.1383L5.39357 7.35219ZM4.80889 2.77041C5.87903 1.34487 7.86728 1.0814 9.25435 2.17197L9.87243 1.38586C8.03975 -0.0550694 5.41262 0.300491 4.00916 2.17006L4.80889 2.77041ZM9.25435 2.17197C10.6484 3.26806 10.9143 5.32137 9.83903 6.75375L10.6388 7.3541C12.0371 5.49136 11.6981 2.82127 9.87243 1.38586L9.25435 2.17197ZM4.63695 7.50863L3.60949 8.87732L4.40922 9.47768L5.43669 8.10898L4.63695 7.50863ZM2.6155 8.71763L4.86795 10.4886L5.48603 9.70248L3.23358 7.93151L2.6155 8.71763ZM4.35479 9.46333L2.1917 12.3448L2.99144 12.9451L5.15452 10.0637L4.35479 9.46333ZM1.58366 11.8383L3.74674 8.95683L2.947 8.35647L0.783921 11.2379L1.58366 11.8383ZM1.65595 12.4189C1.48299 12.2829 1.44653 12.021 1.58366 11.8383L0.783921 11.2379C0.323727 11.851 0.433331 12.7297 1.03787 13.205L1.65595 12.4189ZM2.1917 12.3448C2.05971 12.5206 1.8219 12.5493 1.65595 12.4189L1.03787 13.205C1.64942 13.6858 2.52612 13.565 2.99144 12.9451L2.1917 12.3448Z" fill="#2260FF"/>
</svg>
