<svg width="22" height="18" viewBox="0 0 22 18" fill="none" xmlns="http://www.w3.org/2000/svg">
<path d="M17.7949 5.67235C19.7613 7.0357 21 8.62848 21 9.30975C21 10.6112 16.8904 14.4876 11 14.4876C10.1956 14.4876 9.42437 14.4153 8.69231 14.2872M15.4872 4.37524C14.1341 3.77891 12.6084 3.38017 11 3.38017C5.52055 3.38017 1 8.00826 1 9.30975C1 10.246 3.12656 12.5146 6.51282 13.7142M10.8279 11.9909C11.508 12.0554 12.2134 11.9119 12.8499 11.5343C13.8121 10.9636 14.4024 9.98506 14.5333 8.93388M8.94872 11.1913C8.64727 10.9333 8.38422 10.6172 8.1766 10.2477C7.23189 8.56656 7.79252 6.41683 9.42882 5.4462C10.8584 4.5982 12.636 4.93071 13.6923 6.14932M18.8205 1L3.30769 17" stroke="black" stroke-linecap="round"/>
</svg>
