<svg width="19" height="19" viewBox="0 0 19 19" fill="none" xmlns="http://www.w3.org/2000/svg">
<path d="M7.75342 1V0.5C7.47728 0.5 7.25342 0.723858 7.25342 1H7.75342ZM11.2466 1H11.7466C11.7466 0.723858 11.5227 0.5 11.2466 0.5V1ZM11.2466 18V18.5C11.5227 18.5 11.7466 18.2761 11.7466 18H11.2466ZM7.75342 18H7.25342C7.25342 18.2761 7.47728 18.5 7.75342 18.5V18ZM18 7.75342H18.5C18.5 7.47728 18.2761 7.25342 18 7.25342V7.75342ZM18 11.2466V11.7466C18.1326 11.7466 18.2598 11.6939 18.3536 11.6001C18.4473 11.5064 18.5 11.3792 18.5 11.2466H18ZM1 11.2466H0.5C0.5 11.5227 0.723858 11.7466 1 11.7466L1 11.2466ZM1 7.75342L1 7.25342C0.867392 7.25342 0.740215 7.3061 0.646447 7.39987C0.552678 7.49364 0.5 7.62082 0.5 7.75342H1ZM14.2754 2.25458L14.6289 1.90102C14.4345 1.70655 14.1195 1.70565 13.9239 1.899L14.2754 2.25458ZM16.7454 4.72461L17.101 5.07612C17.2944 4.88054 17.2934 4.56552 17.099 4.37105L16.7454 4.72461ZM4.72461 16.7454L4.37105 17.099C4.56561 17.2935 4.88079 17.2943 5.07634 17.1008L4.72461 16.7454ZM2.25458 14.2754L1.89921 13.9237C1.70566 14.1192 1.70647 14.4344 1.90102 14.6289L2.25458 14.2754ZM16.7454 14.2754L17.099 14.6289C17.2917 14.4363 17.2946 14.1248 17.1055 13.9285L16.7454 14.2754ZM14.2754 16.7454L13.9189 17.096C14.0124 17.1911 14.14 17.2449 14.2733 17.2454C14.4066 17.246 14.5347 17.1933 14.6289 17.099L14.2754 16.7454ZM2.25458 4.72461L1.90103 4.37105C1.80726 4.46482 1.75458 4.592 1.75458 4.72461C1.75458 4.85721 1.80726 4.98439 1.90103 5.07816L2.25458 4.72461ZM4.72461 2.25458L5.07816 1.90102C4.8829 1.70576 4.56632 1.70576 4.37106 1.90102L4.72461 2.25458ZM15.1339 11.2466V10.7466H14.7749L14.6602 11.0867L15.1339 11.2466ZM14.7251 12.1781L14.2866 11.9377L14.1099 12.2602L14.365 12.525L14.7251 12.1781ZM12.1781 14.6131L12.5346 14.2625L12.2816 14.0053L11.9578 14.1642L12.1781 14.6131ZM11.2466 14.9742L11.1068 14.4941L10.7466 14.599V14.9742H11.2466ZM7.75342 14.901H8.25342V14.5421L7.91333 14.4273L7.75342 14.901ZM6.93836 14.5543L7.16868 14.1105L6.84545 13.9428L6.58662 14.1989L6.93836 14.5543ZM4.44569 12.0616L4.80105 12.4134L5.05723 12.1546L4.88948 11.8313L4.44569 12.0616ZM4.09898 11.2466L4.57272 11.0867L4.45793 10.7466L4.09898 10.7466L4.09898 11.2466ZM4.02582 7.75342V8.25342H4.40103L4.5059 7.89317L4.02582 7.75342ZM4.37543 6.84545L4.82528 7.06371L4.98062 6.74354L4.72898 6.4919L4.37543 6.84545ZM6.77242 4.30238L6.41886 4.65594L6.68668 4.92376L7.01702 4.73846L6.77242 4.30238ZM7.75342 3.8661L7.91333 4.33985L8.25342 4.22505V3.8661H7.75342ZM11.2466 3.79294H10.7466V4.16815L11.1068 4.27302L11.2466 3.79294ZM12.2945 4.21281L12.0642 4.6566L12.3872 4.82425L12.646 4.56839L12.2945 4.21281ZM14.7872 6.70548L14.4316 6.35396L14.1758 6.61278L14.3434 6.9358L14.7872 6.70548ZM15.2071 7.75342L14.727 7.89317L14.8318 8.25342L15.2071 8.25342V7.75342ZM7.75342 1.5H11.2466V0.5H7.75342V1.5ZM11.2466 17.5H7.75342V18.5H11.2466V17.5ZM17.5 7.75342V11.2466H18.5V7.75342H17.5ZM1.5 11.2466V7.75342H0.5V11.2466H1.5ZM13.9218 2.60813L16.3919 5.07816L17.099 4.37105L14.6289 1.90102L13.9218 2.60813ZM5.07816 16.3919L2.60813 13.9218L1.90102 14.6289L4.37105 17.099L5.07816 16.3919ZM16.3919 13.9218L13.9218 16.3919L14.6289 17.099L17.099 14.6289L16.3919 13.9218ZM2.60813 5.07816L5.07816 2.60813L4.37106 1.90102L1.90103 4.37105L2.60813 5.07816ZM14.6602 11.0867C14.5602 11.3828 14.4348 11.6674 14.2866 11.9377L15.1635 12.4184C15.3396 12.0971 15.4887 11.7588 15.6076 11.4065L14.6602 11.0867ZM11.9578 14.1642C11.6863 14.2975 11.4018 14.4082 11.1068 14.4941L11.3863 15.4543C11.7373 15.3521 12.0756 15.2204 12.3984 15.0619L11.9578 14.1642ZM7.91333 14.4273C7.65576 14.3403 7.40698 14.2342 7.16868 14.1105L6.70804 14.9981C6.99128 15.1451 7.28712 15.2713 7.59352 15.3748L7.91333 14.4273ZM4.88948 11.8313C4.76581 11.593 4.65966 11.3442 4.57272 11.0867L3.62524 11.4065C3.72866 11.7129 3.8549 12.0087 4.0019 12.292L4.88948 11.8313ZM4.5059 7.89317C4.5895 7.60594 4.6967 7.32872 4.82528 7.06371L3.92558 6.6272C3.77272 6.94226 3.64521 7.27198 3.54575 7.61368L4.5059 7.89317ZM7.01702 4.73846C7.30083 4.57927 7.60061 4.4454 7.91333 4.33985L7.59352 3.39236C7.2215 3.51794 6.86505 3.67714 6.52781 3.8663L7.01702 4.73846ZM11.1068 4.27302C11.4406 4.37018 11.7609 4.4992 12.0642 4.6566L12.5248 3.76902C12.1643 3.58192 11.7834 3.42846 11.3863 3.31287L11.1068 4.27302ZM14.3434 6.9358C14.5008 7.2391 14.6298 7.55939 14.727 7.89317L15.6871 7.61368C15.5715 7.21658 15.4181 6.83567 15.231 6.47516L14.3434 6.9358ZM8.25342 3.8661V1H7.25342V3.8661H8.25342ZM10.7466 1V3.79294H11.7466V1H10.7466ZM4.37106 2.60813L6.41886 4.65594L7.12597 3.94883L5.07816 1.90102L4.37106 2.60813ZM4.72898 6.4919L2.60813 4.37105L1.90103 5.07816L4.02187 7.19901L4.72898 6.4919ZM12.646 4.56839L14.6269 2.61016L13.9239 1.899L11.943 3.85723L12.646 4.56839ZM16.3898 4.37309L14.4316 6.35396L15.1428 7.057L17.101 5.07612L16.3898 4.37309ZM15.2071 8.25342L18 8.25342V7.25342L15.2071 7.25342V8.25342ZM18 10.7466L15.1339 10.7466V11.7466L18 11.7466V10.7466ZM14.365 12.525L16.3853 14.6223L17.1055 13.9285L15.0852 11.8312L14.365 12.525ZM14.6319 16.3948L12.5346 14.2625L11.8216 14.9637L13.9189 17.096L14.6319 16.3948ZM10.7466 14.9742V18H11.7466V14.9742H10.7466ZM8.25342 18V14.901H7.25342V18H8.25342ZM6.58662 14.1989L4.37288 16.3901L5.07634 17.1008L7.29009 14.9097L6.58662 14.1989ZM2.60994 14.6271L4.80105 12.4134L4.09032 11.7099L1.89921 13.9237L2.60994 14.6271ZM4.09898 10.7466L1 10.7466L1 11.7466L4.09898 11.7466L4.09898 10.7466ZM1 8.25342L4.02582 8.25342L4.02582 7.25342L1 7.25342L1 8.25342ZM11.4223 9.08453C11.6374 10.1592 10.9453 11.1694 9.88173 11.3529L10.0518 12.3383C11.6767 12.0579 12.727 10.5079 12.4029 8.88831L11.4223 9.08453ZM9.88173 11.3529C8.80767 11.5383 7.75202 10.813 7.53498 9.72841L6.55442 9.92463C6.87653 11.5343 8.43738 12.617 10.0518 12.3383L9.88173 11.3529ZM7.53498 9.72841C7.31993 8.65376 8.01202 7.64357 9.07557 7.46002L8.90551 6.47459C7.28059 6.75502 6.23032 8.30506 6.55442 9.92463L7.53498 9.72841ZM9.07557 7.46002C10.1496 7.27466 11.2053 7.99995 11.4223 9.08453L12.4029 8.88831C12.0808 7.27866 10.5199 6.19598 8.90551 6.47459L9.07557 7.46002Z" fill="black"/>
</svg>
